<svg width="24" height="23" viewBox="0 0 24 23" fill="none" xmlns="http://www.w3.org/2000/svg">
<path d="M18.204 0.0672533C18.5356 -0.0156915 18.8817 -0.0219995 19.2161 0.0488083C19.5505 0.119616 19.8644 0.265678 20.1339 0.475907C20.4034 0.686135 20.6214 0.955003 20.7715 1.2621C20.9216 1.5692 20.9997 1.90645 21 2.24825V4.07825H21.75C22.3467 4.07825 22.919 4.31531 23.341 4.73726C23.7629 5.15922 24 5.73152 24 6.32825V19.8283C24 20.425 23.7629 20.9973 23.341 21.4192C22.919 21.8412 22.3467 22.0783 21.75 22.0783H2.25C1.65326 22.0783 1.08097 21.8412 0.65901 21.4192C0.237053 20.9973 1.47137e-07 20.425 1.47137e-07 19.8283V6.32825C-0.000209191 5.74903 0.222964 5.19205 0.623066 4.77322C1.02317 4.3544 1.56938 4.10601 2.148 4.07975L18.204 0.0672533ZM8.343 4.07825H19.5V2.24825C19.4997 2.13446 19.4736 2.02221 19.4235 1.92002C19.3735 1.81782 19.3008 1.72836 19.2111 1.65841C19.1213 1.58845 19.0168 1.53984 18.9055 1.51625C18.7941 1.49266 18.6789 1.49471 18.5685 1.52225L8.343 4.07825ZM2.25 5.57825C2.05109 5.57825 1.86032 5.65727 1.71967 5.79792C1.57902 5.93858 1.5 6.12934 1.5 6.32825V19.8283C1.5 20.0272 1.57902 20.2179 1.71967 20.3586C1.86032 20.4992 2.05109 20.5783 2.25 20.5783H21.75C21.9489 20.5783 22.1397 20.4992 22.2803 20.3586C22.421 20.2179 22.5 20.0272 22.5 19.8283V6.32825C22.5 6.12934 22.421 5.93858 22.2803 5.79792C22.1397 5.65727 21.9489 5.57825 21.75 5.57825H2.25Z" fill="#171717"/>
</svg>
