<svg width="111" height="65" viewBox="0 0 111 65" fill="none" xmlns="http://www.w3.org/2000/svg">
<g filter="url(#filter0_f_15_120)">
<path d="M36.952 50C35.64 50 34.664 49.808 34.024 49.424C33.384 49.04 32.92 48.56 32.632 47.984C30.968 44.56 29.4 41.28 27.928 38.144C26.488 35.008 25.016 31.84 23.512 28.64C23.544 32.096 23.592 35.536 23.656 38.96C23.72 42.384 23.784 45.824 23.848 49.28C23.848 49.76 23.592 50 23.08 50H20.44C18.616 50 17.32 49.648 16.552 48.944C15.816 48.208 15.448 47.136 15.448 45.728C15.448 45.344 15.464 44.704 15.496 43.808C15.56 42.88 15.64 41.792 15.736 40.544C15.832 39.296 15.928 37.936 16.024 36.464C16.152 34.96 16.28 33.44 16.408 31.904C16.6 29.472 16.76 27.456 16.888 25.856C17.016 24.256 17.112 22.912 17.176 21.824C17.272 20.704 17.336 19.76 17.368 18.992C17.4 18.192 17.432 17.408 17.464 16.64C17.464 16.16 17.72 15.92 18.232 15.92H22.072C23.128 15.92 23.992 16.048 24.664 16.304C25.336 16.528 25.88 16.848 26.296 17.264C26.744 17.68 27.096 18.16 27.352 18.704C27.608 19.216 27.848 19.76 28.072 20.336C28.84 22.32 29.512 24.032 30.088 25.472C30.696 26.912 31.224 28.176 31.672 29.264C32.12 30.352 32.504 31.296 32.824 32.096C33.176 32.896 33.496 33.632 33.784 34.304C34.072 34.976 34.36 35.632 34.648 36.272C34.936 36.88 35.24 37.552 35.56 38.288C35.56 36.4 35.544 34.464 35.512 32.48C35.512 30.464 35.496 28.512 35.464 26.624C35.464 24.704 35.448 22.864 35.416 21.104C35.416 19.344 35.416 17.76 35.416 16.352C35.416 16.064 35.688 15.92 36.232 15.92H38.872C39.928 15.92 40.76 16.032 41.368 16.256C42.008 16.448 42.504 16.752 42.856 17.168C43.208 17.552 43.432 18.032 43.528 18.608C43.656 19.184 43.72 19.84 43.72 20.576C43.72 21.376 43.672 22.608 43.576 24.272C43.48 25.904 43.368 27.744 43.24 29.792C43.112 31.84 42.968 33.968 42.808 36.176C42.648 38.352 42.488 40.368 42.328 42.224C42.2 44.08 42.072 45.664 41.944 46.976C41.848 48.256 41.784 49.008 41.752 49.232C41.752 49.488 41.656 49.68 41.464 49.808C41.304 49.936 41.112 50 40.888 50H36.952ZM57.5669 36.128L56.6549 49.28C56.6229 49.536 56.5909 49.728 56.5589 49.856C56.5589 49.952 56.4149 50 56.1269 50H53.4869C51.6949 50 50.4149 49.648 49.6469 48.944C48.8789 48.24 48.4949 47.232 48.4949 45.92C48.4949 45.28 48.5429 44.192 48.6389 42.656C48.7349 41.088 48.8629 39.312 49.0229 37.328C49.1829 35.344 49.3429 33.248 49.5029 31.04C49.6629 28.832 49.8229 26.752 49.9829 24.8C50.1429 22.848 50.2709 21.136 50.3669 19.664C50.4629 18.192 50.5109 17.184 50.5109 16.64C50.5109 16.16 50.7669 15.92 51.2789 15.92H68.1749C68.3669 15.92 68.5429 15.968 68.7029 16.064C68.8629 16.16 68.9429 16.336 68.9429 16.592L68.7509 19.424C68.6869 20.384 68.4149 21.168 67.9349 21.776C67.4869 22.352 66.5429 22.64 65.1029 22.64H58.4789L57.9989 29.408H64.8149C65.0069 29.408 65.1829 29.456 65.3429 29.552C65.5029 29.648 65.5829 29.824 65.5829 30.08L65.3909 32.912C65.3269 33.872 65.0549 34.656 64.5749 35.264C64.1269 35.84 63.1829 36.128 61.7429 36.128H57.5669ZM86.3125 22.64L84.4885 49.28C84.4565 49.76 84.2805 50 83.9605 50H81.3205C79.5285 50 78.2485 49.648 77.4805 48.944C76.7125 48.24 76.3285 47.232 76.3285 45.92C76.3285 45.44 76.3445 44.72 76.3765 43.76C76.4405 42.8 76.5205 41.68 76.6165 40.4C76.7125 39.088 76.8085 37.68 76.9045 36.176C77.0325 34.64 77.1605 33.104 77.2885 31.568C77.4165 30 77.5285 28.448 77.6245 26.912C77.7525 25.376 77.8645 23.952 77.9605 22.64H70.2805C69.9285 22.64 69.7525 22.416 69.7525 21.968L69.8965 19.28C69.9285 18.864 69.9925 18.464 70.0885 18.08C70.2165 17.664 70.4085 17.296 70.6645 16.976C70.9205 16.656 71.2405 16.4 71.6245 16.208C72.0405 16.016 72.5365 15.92 73.1125 15.92H94.5685C94.7605 15.92 94.9365 15.968 95.0965 16.064C95.2565 16.16 95.3365 16.336 95.3365 16.592L95.1445 19.424C95.0805 20.384 94.8085 21.168 94.3285 21.776C93.8805 22.352 92.9365 22.64 91.4965 22.64H86.3125Z" fill="#EF32D9"/>
</g>
<path d="M36.952 50C35.64 50 34.664 49.808 34.024 49.424C33.384 49.04 32.92 48.56 32.632 47.984C30.968 44.56 29.4 41.28 27.928 38.144C26.488 35.008 25.016 31.84 23.512 28.64C23.544 32.096 23.592 35.536 23.656 38.96C23.72 42.384 23.784 45.824 23.848 49.28C23.848 49.76 23.592 50 23.08 50H20.44C18.616 50 17.32 49.648 16.552 48.944C15.816 48.208 15.448 47.136 15.448 45.728C15.448 45.344 15.464 44.704 15.496 43.808C15.56 42.88 15.64 41.792 15.736 40.544C15.832 39.296 15.928 37.936 16.024 36.464C16.152 34.96 16.28 33.44 16.408 31.904C16.6 29.472 16.76 27.456 16.888 25.856C17.016 24.256 17.112 22.912 17.176 21.824C17.272 20.704 17.336 19.76 17.368 18.992C17.4 18.192 17.432 17.408 17.464 16.64C17.464 16.16 17.72 15.92 18.232 15.92H22.072C23.128 15.92 23.992 16.048 24.664 16.304C25.336 16.528 25.88 16.848 26.296 17.264C26.744 17.68 27.096 18.16 27.352 18.704C27.608 19.216 27.848 19.76 28.072 20.336C28.84 22.32 29.512 24.032 30.088 25.472C30.696 26.912 31.224 28.176 31.672 29.264C32.12 30.352 32.504 31.296 32.824 32.096C33.176 32.896 33.496 33.632 33.784 34.304C34.072 34.976 34.36 35.632 34.648 36.272C34.936 36.88 35.24 37.552 35.56 38.288C35.56 36.4 35.544 34.464 35.512 32.48C35.512 30.464 35.496 28.512 35.464 26.624C35.464 24.704 35.448 22.864 35.416 21.104C35.416 19.344 35.416 17.76 35.416 16.352C35.416 16.064 35.688 15.92 36.232 15.92H38.872C39.928 15.92 40.76 16.032 41.368 16.256C42.008 16.448 42.504 16.752 42.856 17.168C43.208 17.552 43.432 18.032 43.528 18.608C43.656 19.184 43.72 19.84 43.72 20.576C43.72 21.376 43.672 22.608 43.576 24.272C43.48 25.904 43.368 27.744 43.24 29.792C43.112 31.84 42.968 33.968 42.808 36.176C42.648 38.352 42.488 40.368 42.328 42.224C42.2 44.08 42.072 45.664 41.944 46.976C41.848 48.256 41.784 49.008 41.752 49.232C41.752 49.488 41.656 49.68 41.464 49.808C41.304 49.936 41.112 50 40.888 50H36.952ZM57.5669 36.128L56.6549 49.28C56.6229 49.536 56.5909 49.728 56.5589 49.856C56.5589 49.952 56.4149 50 56.1269 50H53.4869C51.6949 50 50.4149 49.648 49.6469 48.944C48.8789 48.24 48.4949 47.232 48.4949 45.92C48.4949 45.28 48.5429 44.192 48.6389 42.656C48.7349 41.088 48.8629 39.312 49.0229 37.328C49.1829 35.344 49.3429 33.248 49.5029 31.04C49.6629 28.832 49.8229 26.752 49.9829 24.8C50.1429 22.848 50.2709 21.136 50.3669 19.664C50.4629 18.192 50.5109 17.184 50.5109 16.64C50.5109 16.16 50.7669 15.92 51.2789 15.92H68.1749C68.3669 15.92 68.5429 15.968 68.7029 16.064C68.8629 16.16 68.9429 16.336 68.9429 16.592L68.7509 19.424C68.6869 20.384 68.4149 21.168 67.9349 21.776C67.4869 22.352 66.5429 22.64 65.1029 22.64H58.4789L57.9989 29.408H64.8149C65.0069 29.408 65.1829 29.456 65.3429 29.552C65.5029 29.648 65.5829 29.824 65.5829 30.08L65.3909 32.912C65.3269 33.872 65.0549 34.656 64.5749 35.264C64.1269 35.84 63.1829 36.128 61.7429 36.128H57.5669ZM86.3125 22.64L84.4885 49.28C84.4565 49.76 84.2805 50 83.9605 50H81.3205C79.5285 50 78.2485 49.648 77.4805 48.944C76.7125 48.24 76.3285 47.232 76.3285 45.92C76.3285 45.44 76.3445 44.72 76.3765 43.76C76.4405 42.8 76.5205 41.68 76.6165 40.4C76.7125 39.088 76.8085 37.68 76.9045 36.176C77.0325 34.64 77.1605 33.104 77.2885 31.568C77.4165 30 77.5285 28.448 77.6245 26.912C77.7525 25.376 77.8645 23.952 77.9605 22.64H70.2805C69.9285 22.64 69.7525 22.416 69.7525 21.968L69.8965 19.28C69.9285 18.864 69.9925 18.464 70.0885 18.08C70.2165 17.664 70.4085 17.296 70.6645 16.976C70.9205 16.656 71.2405 16.4 71.6245 16.208C72.0405 16.016 72.5365 15.92 73.1125 15.92H94.5685C94.7605 15.92 94.9365 15.968 95.0965 16.064C95.2565 16.16 95.3365 16.336 95.3365 16.592L95.1445 19.424C95.0805 20.384 94.8085 21.168 94.3285 21.776C93.8805 22.352 92.9365 22.64 91.4965 22.64H86.3125Z" fill="#EF32D9"/>
<defs>
<filter id="filter0_f_15_120" x="0.447998" y="0.919983" width="109.888" height="64.08" filterUnits="userSpaceOnUse" color-interpolation-filters="sRGB">
<feFlood flood-opacity="0" result="BackgroundImageFix"/>
<feBlend mode="normal" in="SourceGraphic" in2="BackgroundImageFix" result="shape"/>
<feGaussianBlur stdDeviation="7.5" result="effect1_foregroundBlur_15_120"/>
</filter>
</defs>
</svg>
