<svg width="25" height="24" viewBox="0 0 25 24" fill="none" xmlns="http://www.w3.org/2000/svg">
<path d="M21.3406 11.5406L13.0906 1.04063C13.0205 0.950991 12.9308 0.878495 12.8285 0.828637C12.7262 0.778779 12.6138 0.752869 12.5 0.752869C12.3862 0.752869 12.2738 0.778779 12.1715 0.828637C12.0692 0.878495 11.9795 0.950991 11.9094 1.04063L3.65937 11.5406C3.55435 11.6707 3.49707 11.8328 3.49707 12C3.49707 12.1672 3.55435 12.3293 3.65937 12.4594L11.9094 22.9594C11.9795 23.049 12.0692 23.1215 12.1715 23.1714C12.2738 23.2212 12.3862 23.2471 12.5 23.2471C12.6138 23.2471 12.7262 23.2212 12.8285 23.1714C12.9308 23.1215 13.0205 23.049 13.0906 22.9594L21.3406 12.4594C21.4456 12.3293 21.5029 12.1672 21.5029 12C21.5029 11.8328 21.4456 11.6707 21.3406 11.5406ZM13.25 3.66563L19.5687 11.7094L13.25 14.5875V3.66563ZM11.75 14.5875L5.43125 11.7094L11.75 3.66563V14.5875ZM11.75 16.2375V20.3344L6.74375 13.9594L11.75 16.2375ZM13.25 16.2375L18.2562 13.9594L13.25 20.3344V16.2375Z" fill="#162719"/>
</svg>
