<svg width="25" height="24" viewBox="0 0 25 24" fill="none" xmlns="http://www.w3.org/2000/svg">
<path d="M22.8781 6.89065C22.6626 6.71353 22.4021 6.59962 22.1258 6.56155C21.8494 6.52349 21.5679 6.56277 21.3125 6.67503L16.5687 8.7844L13.8125 3.81565C13.6807 3.58368 13.4899 3.39076 13.2593 3.25655C13.0288 3.12234 12.7668 3.05164 12.5 3.05164C12.2332 3.05164 11.9712 3.12234 11.7406 3.25655C11.5101 3.39076 11.3192 3.58368 11.1875 3.81565L8.43123 8.7844L3.68748 6.67503C3.43202 6.56078 3.14968 6.52026 2.8724 6.55808C2.59512 6.59589 2.33394 6.71051 2.1184 6.889C1.90286 7.06748 1.74154 7.3027 1.65269 7.56807C1.56383 7.83343 1.55099 8.11837 1.6156 8.39065L3.99685 18.5438C4.04239 18.7403 4.12735 18.9256 4.2466 19.0884C4.36585 19.2511 4.5169 19.388 4.6906 19.4907C4.92577 19.6314 5.19465 19.7059 5.46873 19.7063C5.60196 19.706 5.7345 19.6871 5.86248 19.65C10.2029 18.45 14.7876 18.45 19.1281 19.65C19.5244 19.7542 19.9459 19.6969 20.3 19.4907C20.4747 19.3893 20.6266 19.2528 20.746 19.0899C20.8654 18.9269 20.9498 18.741 20.9937 18.5438L23.3844 8.39065C23.4482 8.11829 23.4347 7.83349 23.3452 7.56843C23.2558 7.30336 23.094 7.0686 22.8781 6.89065ZM19.5312 18.2063C14.9272 16.9313 10.0633 16.9313 5.45935 18.2063L3.0781 8.05315L7.82185 10.1532C8.16224 10.3079 8.54856 10.3282 8.90328 10.2099C9.25801 10.0917 9.55489 9.84368 9.73435 9.51565L12.5 4.5469L15.2656 9.51565C15.4451 9.84368 15.7419 10.0917 16.0967 10.2099C16.4514 10.3282 16.8377 10.3079 17.1781 10.1532L21.9219 8.05315L19.5312 18.2063Z" fill="#162719"/>
</svg>
