<svg width="25" height="24" viewBox="0 0 25 24" fill="none" xmlns="http://www.w3.org/2000/svg">
<g clip-path="url(#clip0_14_67)">
<path d="M12.5 5.25C12.5 5.05109 12.421 4.86032 12.2803 4.71967C12.1397 4.57902 11.9489 4.5 11.75 4.5C11.5511 4.5 11.3603 4.57902 11.2197 4.71967C11.079 4.86032 11 5.05109 11 5.25V13.5C11 13.6322 11.035 13.762 11.1014 13.8764C11.1678 13.9907 11.2632 14.0854 11.378 14.151L16.628 17.151C16.8003 17.2441 17.0022 17.2661 17.1905 17.2124C17.3788 17.1586 17.5386 17.0333 17.6358 16.8633C17.7329 16.6933 17.7597 16.492 17.7104 16.3024C17.6612 16.1129 17.5397 15.9502 17.372 15.849L12.5 13.065V5.25Z" fill="black"/>
<path d="M12.5 24C15.6826 24 18.7348 22.7357 20.9853 20.4853C23.2357 18.2348 24.5 15.1826 24.5 12C24.5 8.8174 23.2357 5.76516 20.9853 3.51472C18.7348 1.26428 15.6826 0 12.5 0C9.3174 0 6.26516 1.26428 4.01472 3.51472C1.76428 5.76516 0.5 8.8174 0.5 12C0.5 15.1826 1.76428 18.2348 4.01472 20.4853C6.26516 22.7357 9.3174 24 12.5 24ZM23 12C23 14.7848 21.8938 17.4555 19.9246 19.4246C17.9555 21.3938 15.2848 22.5 12.5 22.5C9.71523 22.5 7.04451 21.3938 5.07538 19.4246C3.10625 17.4555 2 14.7848 2 12C2 9.21523 3.10625 6.54451 5.07538 4.57538C7.04451 2.60625 9.71523 1.5 12.5 1.5C15.2848 1.5 17.9555 2.60625 19.9246 4.57538C21.8938 6.54451 23 9.21523 23 12Z" fill="black"/>
</g>
<defs>
<clipPath id="clip0_14_67">
<rect width="24" height="24" fill="white" transform="translate(0.5)"/>
</clipPath>
</defs>
</svg>
