<svg width="22" height="14" viewBox="0 0 22 14" fill="none" xmlns="http://www.w3.org/2000/svg">
<path fill-rule="evenodd" clip-rule="evenodd" d="M0 6.75095C0 6.55203 0.0790176 6.36127 0.21967 6.22062C0.360322 6.07997 0.551088 6.00095 0.75 6.00095H18.4395L13.719 1.28195C13.5782 1.14112 13.4991 0.950111 13.4991 0.750947C13.4991 0.551784 13.5782 0.360777 13.719 0.219947C13.8598 0.0791173 14.0508 4.69246e-09 14.25 0C14.4492 -4.69246e-09 14.6402 0.0791173 14.781 0.219947L20.781 6.21995C20.8508 6.28962 20.9063 6.37238 20.9441 6.4635C20.9819 6.55462 21.0013 6.6523 21.0013 6.75095C21.0013 6.8496 20.9819 6.94728 20.9441 7.0384C20.9063 7.12951 20.8508 7.21228 20.781 7.28195L14.781 13.2819C14.6402 13.4228 14.4492 13.5019 14.25 13.5019C14.0508 13.5019 13.8598 13.4228 13.719 13.2819C13.5782 13.1411 13.4991 12.9501 13.4991 12.7509C13.4991 12.5518 13.5782 12.3608 13.719 12.2199L18.4395 7.50095H0.75C0.551088 7.50095 0.360322 7.42193 0.21967 7.28128C0.0790176 7.14063 0 6.94986 0 6.75095Z" fill="#F2F3F2"/>
</svg>
